<svg xmlns="http://www.w3.org/2000/svg" width="40" height="40" viewBox="0 0 40 40" fill="none"><path d="M4.53 4.87988H35.5V38.8799H6.5C5.4 38.8799 4.5 37.9799 4.5 36.8799V4.91988C4.5 4.89988 4.52 4.87988 4.53 4.87988Z" stroke="#8E56FF" stroke-width="2" stroke-miterlimit="10"></path><path d="M32.48 4.88012V1.12012H6.5C5.4 1.12012 4.5 2.02012 4.5 3.12012V4.89012" stroke="#8E56FF" stroke-width="2" stroke-miterlimit="10"></path><path d="M8.66992 4.87988V38.4599" stroke="#8E56FF" stroke-width="2" stroke-miterlimit="10"></path><path d="M22.5195 4.87988V19.2399C22.5195 19.3799 22.6895 19.4499 22.7895 19.3499L26.3295 15.8099C26.3895 15.7499 26.4895 15.7499 26.5495 15.8099L30.3495 19.6099C30.4495 19.7099 30.6195 19.6399 30.6195 19.4999V4.87988" stroke="#8E56FF" stroke-width="2" stroke-miterlimit="10"></path></svg>