<svg xmlns="http://www.w3.org/2000/svg" width="40" height="40" viewBox="0 0 40 40" fill="none"><path d="M24.2108 30H2.40888C1.62882 30 1 29.381 1 28.613V5.38698C1 4.61905 1.62882 4 2.40888 4H37.5911C38.3711 4 39 4.61905 39 5.38698V28.613C39 29.381 38.3711 30 37.5911 30H34.6858" stroke="#39C0FA" stroke-width="2" stroke-miterlimit="10"></path><path d="M7 11H34" stroke="#39C0FA" stroke-width="2" stroke-miterlimit="10" stroke-linecap="round" stroke-linejoin="round"></path><path d="M7 17H19" stroke="#39C0FA" stroke-width="2" stroke-miterlimit="10" stroke-linecap="round" stroke-linejoin="round"></path><path d="M29.5 27C32.5376 27 35 24.5375 35 21.5C35 18.4625 32.5376 16 29.5 16C26.4624 16 24 18.4625 24 21.5C24 24.5375 26.4624 27 29.5 27Z" stroke="#39C0FA" stroke-width="2" stroke-miterlimit="10"></path><path d="M25.2004 25L23.0061 35.6439C22.955 35.8942 23.2357 36.0799 23.4654 35.9588L28.7388 33.0918C29.2065 32.8335 29.785 32.8335 30.2613 33.0918L35.5346 35.9588C35.7642 36.088 36.045 35.8942 35.9939 35.6439L33.7995 25" stroke="#39C0FA" stroke-width="2" stroke-miterlimit="10"></path></svg>