<svg xmlns="http://www.w3.org/2000/svg" width="40" height="40" viewBox="0 0 40 40" fill="none"><path d="M31.2245 29.4265L29.4149 35.138H10.5861L8.77648 29.4265H31.2245ZM31.578 27.79H8.42297C7.46343 27.79 6.78166 28.6901 7.06784 29.582L9.03741 35.8007C9.21416 36.3817 9.76968 36.7745 10.3925 36.7745H29.6169C30.2397 36.7745 30.7953 36.3817 30.972 35.8007L32.9416 29.582C33.2193 28.6901 32.5376 27.79 31.578 27.79Z" fill="#EE4A62"></path><path d="M10.7617 28.4852C10.7617 25.8177 12.9922 23.6494 15.7362 23.6494H24.2626C27.0065 23.6494 29.237 25.8177 29.237 28.4852" stroke="#EE4A62" stroke-width="1.67742" stroke-miterlimit="10"></path><path d="M19.6426 32.2812H20.3581" stroke="#EE4A62" stroke-width="1.67742" stroke-miterlimit="10" stroke-linecap="round" stroke-linejoin="round"></path><path d="M24.1786 23.6493V22.1682C24.1786 21.4482 24.448 20.7609 24.9109 20.1962C25.9378 18.9525 26.6449 17.5697 26.8973 15.4995C26.9394 15.1476 27.2424 14.8694 27.6043 14.8694C28.0168 14.8694 28.345 14.5422 28.345 14.1412V13.4948C28.345 13.0938 28.0083 12.7665 27.596 12.7665H27.5875C27.2172 12.7665 26.9226 12.4965 26.8805 12.1446C26.3334 7.54607 23.4548 4.04395 20.0039 4.04395C16.5444 4.04395 13.6743 7.54607 13.1019 12.1446C13.0598 12.4965 12.7568 12.7747 12.3949 12.7747H12.3781C11.9067 12.7747 11.5195 13.1511 11.5195 13.6094V14.0266C11.5195 14.4849 11.9067 14.8612 12.3781 14.8612C12.7484 14.8612 13.043 15.1313 13.0851 15.4913C13.3376 17.5615 14.053 18.9525 15.0715 20.1962C15.5344 20.7609 15.8038 21.4564 15.8038 22.1764V23.6493" stroke="#EE4A62" stroke-width="1.67742" stroke-miterlimit="10"></path><path d="M12.4629 12.7755H18.6914C19.954 12.7755 21.1155 11.8836 21.1997 10.6644C21.225 10.2716 21.1913 9.4697 21.326 9.10149C21.4017 8.89692 21.7384 8.96238 21.8057 9.17513L22.5127 12.0063C22.6642 12.4727 23.1103 12.7837 23.6069 12.7837H27.4283" stroke="#EE4A62" stroke-width="1.67742" stroke-miterlimit="10"></path></svg>