<svg xmlns="http://www.w3.org/2000/svg" width="40" height="40" viewBox="0 0 40 40" fill="none"><path d="M34.1208 16.1829V31.8147M4.55859 31.8147V10.7333C4.55859 10.3015 4.90405 9.95605 5.33587 9.95605H25.1822" stroke="#1AB69D" stroke-width="1.72727" stroke-miterlimit="10"></path><path d="M28.7051 8.02148H34.1719" stroke="#1AB69D" stroke-width="1.72727" stroke-miterlimit="10" stroke-linecap="round" stroke-linejoin="round"></path><path d="M30.2676 11.4844H32.5994" stroke="#1AB69D" stroke-width="1.72727" stroke-miterlimit="10" stroke-linecap="round" stroke-linejoin="round"></path><path d="M27.8434 16.0525L25.1565 17.8928C25.0901 17.9383 25 17.8907 25 17.8103V4.3C25 4.13431 25.1343 4 25.3 4H36.7C36.8657 4 37 4.13431 37 4.3V15.7C37 15.8657 36.8657 16 36.7 16H28.0129C27.9524 16 27.8933 16.0183 27.8434 16.0525Z" stroke="#1AB69D" stroke-width="1.73"></path><path d="M10.4473 31.8062V25.7866C10.4473 23.9384 12.1918 22.4443 14.3509 22.4443C16.51 22.4443 18.2545 23.9384 18.2545 25.7866V31.8062" stroke="#1AB69D" stroke-width="1.72727" stroke-miterlimit="10"></path><path d="M14.3522 22.4446C15.6448 22.4446 16.6926 21.3966 16.6926 20.1041C16.6926 18.8115 15.6448 17.7637 14.3522 17.7637C13.0596 17.7637 12.0117 18.8115 12.0117 20.1041C12.0117 21.3966 13.0596 22.4446 14.3522 22.4446Z" stroke="#1AB69D" stroke-width="1.72727" stroke-miterlimit="10"></path><path d="M2 31.865H37C37.0746 31.865 37.135 31.9254 37.135 32V34.5C37.135 35.403 36.403 36.135 35.5 36.135H3.5C2.59701 36.135 1.865 35.403 1.865 34.5V32C1.865 31.9254 1.92544 31.865 2 31.865Z" stroke="#1AB69D" stroke-width="1.73"></path></svg>