<svg xmlns="http://www.w3.org/2000/svg" width="40" height="40" viewBox="0 0 40 40" fill="none"><g clip-path="url(#clip0_2464_7494)"><path d="M10.7983 9.25472C12.8518 9.25472 14.5164 7.59004 14.5164 5.53654C14.5164 3.48305 12.8518 1.81836 10.7983 1.81836C8.74476 1.81836 7.08008 3.48305 7.08008 5.53654C7.08008 7.59004 8.74476 9.25472 10.7983 9.25472Z" stroke="#EE4A62" stroke-width="2" stroke-miterlimit="10"></path><path d="M8.13484 12.7638L8.85302 13.2911C9.9712 14.1184 11.5257 14.0093 12.5167 13.0184C13.0439 12.4911 13.7621 12.2002 14.5076 12.2002C16.4985 12.2002 18.4167 12.9911 19.8257 14.4002L20.5803 15.1547C20.8439 15.4184 21.1985 15.5638 21.5621 15.5638H24.5985C25.8803 15.5638 26.9167 16.6002 26.9167 17.882C26.9167 19.1638 25.8803 20.2002 24.5985 20.2002H20.2076C19.5167 20.2002 18.853 19.9275 18.3712 19.4366L16.7076 17.7729C16.1257 17.1911 15.1348 17.6002 15.1348 18.4275V38.182H10.8076H6.42575V28.6911C6.42575 27.3547 5.33484 26.2638 3.99847 26.2638C2.98938 26.2638 2.16211 25.4457 2.16211 24.4275V16.5002C2.16211 14.1184 4.08938 12.2002 6.4712 12.2002C7.0712 12.2093 7.65302 12.4002 8.13484 12.7638Z" stroke="#EE4A62" stroke-width="2" stroke-miterlimit="10"></path><path d="M10.7363 37.4457V24.6094" stroke="#EE4A62" stroke-width="2" stroke-miterlimit="10" stroke-linecap="round"></path><path d="M17.4629 1.81836H36.3356C37.3902 1.81836 38.2538 2.67291 38.2538 3.73654V23.3365C38.2538 24.3911 37.3993 25.2547 36.3356 25.2547H18.872" stroke="#EE4A62" stroke-width="2" stroke-miterlimit="10" stroke-linecap="round" stroke-linejoin="round"></path><path d="M21.1719 6.22754H31.781" stroke="#EE4A62" stroke-width="2" stroke-miterlimit="10" stroke-linecap="round" stroke-linejoin="round"></path><path d="M21.1719 10.6094H26.2082" stroke="#EE4A62" stroke-width="2" stroke-miterlimit="10" stroke-linecap="round" stroke-linejoin="round"></path><path d="M31.4613 10.4463L26.334 15.5736" stroke="#EE4A62" stroke-width="2" stroke-miterlimit="10" stroke-linecap="round" stroke-linejoin="round"></path><path d="M1.75391 38.1816H31.3266" stroke="#EE4A62" stroke-width="2" stroke-miterlimit="10" stroke-linecap="round"></path></g><defs><clipPath id="clip0_2464_7494"><rect width="40" height="40" fill="white"></rect></clipPath></defs></svg>